<?xml version="1.0" encoding="UTF-8" standalone="no"?>
<svg width="193px" height="338px" viewBox="0 0 193 338" version="1.1" xmlns="http://www.w3.org/2000/svg" xmlns:xlink="http://www.w3.org/1999/xlink" xmlns:sketch="http://www.bohemiancoding.com/sketch/ns">
    <!-- Generator: Sketch 3.3.2 (12043) - http://www.bohemiancoding.com/sketch -->
    <title>Path 5</title>
    <desc>Created with Sketch.</desc>
    <defs></defs>
    <g id="Welcome" stroke="none" stroke-width="1" fill="none" fill-rule="evenodd" sketch:type="MSPage">
        <g id="Desktop-HD" sketch:type="MSArtboardGroup" transform="translate(-883.000000, -669.000000)" fill="#B66BED">
            <path d="M953.822209,989.618702 C962.842844,989.618702 976.511862,987.187336 985.532498,987.187336 C971.305119,987.187336 957.30156,999.72884 948.552708,993.458088 C939.803856,987.187336 949.871146,1001.05593 950.749023,1001.56657 C954.701269,1003.8655 972.339631,1007 972.339631,1007 C972.339631,1007 979.940154,1004.80862 985.532496,1001.56657 C988.422879,999.890931 993.688351,973.873402 993.688351,973.873402 C993.688351,973.873402 974.729649,981.772572 963.188527,981.772572 L948.552708,981.772572 C951.846124,980.761233 963.636394,979.777981 975.524281,976.31255 C983.642995,973.945868 993.688351,968.558277 993.688351,968.558277 L1042.3086,929.668519 L1075.60219,836.770258 C1075.60219,836.770258 1062.05814,847.697031 1055.28611,853.160417 C1052.23076,855.625345 1046.12006,860.555202 1046.12006,860.555202 L1063.85648,817.265308 L1063.85648,784.548342 L1042.45092,736.240179 L1047.74783,769.484841 L1042.45092,784.548336 L1033.52934,788.511017 L1028.8195,755.368646 L982.147994,690.06679 L932.652362,669.506245 L959.763997,690.066789 L971.305119,733.905269 L958.718846,757.587921 L951.585142,734.198801 L935.436464,716.858207 L915.8677,710.280435 L927.760171,729.83369 L933.008158,748.621869 L923.592914,775.475551 L899.514439,821.800153 L900.359454,769.680528 L887.09037,834.688848 L883.810505,865.647528 L897.290715,929.463937 L927.760171,951.661142 L959.763996,955.232442 L983.500017,949.682028 C983.500017,949.682028 994.424408,944.192307 998.46053,939.741505 C1002.31714,935.488654 1007.17822,923.57107 1007.17822,923.57107 C1007.17822,923.57107 1005.50407,907.20594 1002.28154,900.970127 C999.179797,894.96805 988.205416,886.8574 988.205416,886.8574 L953.822207,878.93205 L931.327023,897.904857 L938.278383,923.32645 C938.278383,923.32645 944.48334,928.062076 948.552708,929.85976 C953.379715,931.99214 964.967508,935.116641 964.967508,935.116641 C964.967508,935.116641 953.893262,939.552415 948.552708,939.741505 C942.713864,939.948237 931.429314,936.304109 931.429314,936.304109 C931.429314,936.304109 923.73713,934.025763 919.964558,931.962727 C915.826605,929.69988 904.617257,913.49863 904.617257,913.49863 L900.359454,878.932056 L915.867699,843.063395 L941.978657,828.791539 L985.5325,822.845303 L1007.52512,834.688853 L1028.63715,855.29832 L1034.97921,884.531385 L1034.97921,908.658782 L1025.91087,929.85976 L1008.67256,946.061807 L988.205418,962.434864 L964.967511,968.558277 L939.803856,970.883006 L941.978657,987.187336 C941.978657,987.187336 948.324897,989.618702 953.822209,989.618702 Z" id="Path-5" sketch:type="MSShapeGroup"></path>
        </g>
    </g>
</svg>