<?xml version="1.0" encoding="UTF-8" standalone="no"?>
<svg width="182px" height="235px" viewBox="0 0 182 235" version="1.1" xmlns="http://www.w3.org/2000/svg" xmlns:xlink="http://www.w3.org/1999/xlink" xmlns:sketch="http://www.bohemiancoding.com/sketch/ns">
    <!-- Generator: Sketch 3.3.2 (12043) - http://www.bohemiancoding.com/sketch -->
    <title>Path 6</title>
    <desc>Created with Sketch.</desc>
    <defs></defs>
    <g id="Welcome" stroke="none" stroke-width="1" fill="none" fill-rule="evenodd" sketch:type="MSPage">
        <g id="Tablet-Portrait" sketch:type="MSArtboardGroup" transform="translate(-148.000000, -277.000000)" fill="#F54B99">
            <path d="M262.9486,279.866723 C262.9486,279.866723 247.559877,300.487359 247.559876,312.308373 C247.559875,315.704545 247.243121,319.969179 247.559876,330.067262 C248.345645,355.117451 250.252132,395.893628 250.252135,400.86232 C250.25214,407.833962 233.289937,428.35095 233.289937,428.35095 L233.698473,464.349859 C233.698473,464.349859 238.942007,449.578901 260.636856,449.578904 C268.20406,449.578905 269.300896,454.348039 272.246735,456.774583 C274.748444,458.835289 283.32446,458.794651 288.47332,456.774583 C291.629417,455.536341 291.900717,450.230664 294.40226,449.578904 C301.684788,447.68149 304.550269,449.578899 304.550269,449.578899 C304.550269,449.578899 315.184702,450.417299 317.086419,451.532609 C323.580027,455.340951 329.736245,464.349854 329.736245,464.349854 L329.736242,512 L149.683023,512 L148.272026,499.765146 L164.63999,491.8491 L164.63999,300.258457 C164.63999,300.258457 149.683023,296.846777 149.683023,296.846777 C149.683023,296.846777 149.683023,277.895579 149.683023,277.895579 L263.086679,277.299424 L262.9486,279.866723 Z M279.5,341.185585 C289.164983,341.185585 297,333.350568 297,323.685585 C297,314.020601 289.164983,306.185585 279.5,306.185585 C269.835017,306.185585 262,314.020601 262,323.685585 C262,333.350568 269.835017,341.185585 279.5,341.185585 Z M279.5,370.185585 C285.29899,370.185585 290,365.484574 290,359.685585 C290,353.886595 285.29899,349.185585 279.5,349.185585 C273.70101,349.185585 269,353.886595 269,359.685585 C269,365.484574 273.70101,370.185585 279.5,370.185585 Z" id="Path-6" sketch:type="MSShapeGroup"></path>
        </g>
    </g>
</svg>