<?xml version="1.0" encoding="UTF-8" standalone="no"?>
<svg width="400px" height="400px" viewBox="0 0 400 400" version="1.1" xmlns="http://www.w3.org/2000/svg" xmlns:xlink="http://www.w3.org/1999/xlink" xmlns:sketch="http://www.bohemiancoding.com/sketch/ns">
    <!-- Generator: Sketch 3.3.2 (12043) - http://www.bohemiancoding.com/sketch -->
    <title>Oval 3</title>
    <desc>Created with Sketch.</desc>
    <defs></defs>
    <g id="Welcome" stroke="none" stroke-width="1" fill="none" fill-rule="evenodd" sketch:type="MSPage">
        <g id="Desktop" sketch:type="MSArtboardGroup" transform="translate(-512.000000, -221.000000)" fill="#DB3030">
            <path d="M630,327.161851 C590.357122,329.736476 559,362.706314 559,403 C559,443.293686 590.357122,476.263524 630,478.838149 L630,479 L684.113331,479 C687.9562,479 683.71883,467.460022 687.9562,467.460022 L708.012833,467.460022 C709.78643,467.460022 709.012833,479 709.012833,479 L712.838547,479 C713.852064,479 712.425497,468.419343 713.838547,468.093521 C722.655186,466.060576 736.626823,467.460022 735.499428,468.460022 C736.62682,468.647726 735.499428,479 735.499428,479 L795,479 L795,478.766632 C834.168918,475.707571 865,442.954278 865,403 C865,363.045722 834.168918,330.292429 795,327.233368 L795,327 L630,327 L630,327.161851 L630,327.161851 Z M712,621 C822.45695,621 912,531.45695 912,421 C912,310.54305 822.45695,221 712,221 C601.54305,221 512,310.54305 512,421 C512,531.45695 601.54305,621 712,621 Z M634,452 C662.166522,452 685,429.166522 685,401 C685,372.833478 662.166522,350 634,350 C605.833478,350 583,372.833478 583,401 C583,429.166522 605.833478,452 634,452 Z M634,429 C649.463973,429 662,416.463973 662,401 C662,385.536027 649.463973,373 634,373 C618.536027,373 606,385.536027 606,401 C606,416.463973 618.536027,429 634,429 Z M789,453 C817.166522,453 840,430.166522 840,402 C840,373.833478 817.166522,351 789,351 C760.833478,351 738,373.833478 738,402 C738,430.166522 760.833478,453 789,453 Z M789,430 C804.463973,430 817,417.463973 817,402 C817,386.536027 804.463973,374 789,374 C773.536027,374 761,386.536027 761,402 C761,417.463973 773.536027,430 789,430 Z M624,487.008788 C624,485.34708 625.33426,484 626.9961,484 L653.0039,484 C654.6586,484 656,485.34559 656,487.008788 L656,501.991212 C656,503.65292 654.66574,505 653.0039,505 L626.9961,505 C625.3414,505 624,503.65441 624,501.991212 L624,487.008788 Z M624,514.008788 C624,512.34708 625.33426,511 626.9961,511 L653.0039,511 C654.6586,511 656,512.34559 656,514.008788 L656,528.991212 C656,530.65292 654.66574,532 653.0039,532 L626.9961,532 C625.3414,532 624,530.65441 624,528.991212 L624,514.008788 Z M768,514.008788 C768,512.34708 769.33426,511 770.9961,511 L797.0039,511 C798.6586,511 800,512.34559 800,514.008788 L800,528.991212 C800,530.65292 798.66574,532 797.0039,532 L770.9961,532 C769.3414,532 768,530.65441 768,528.991212 L768,514.008788 Z M768,487.008788 C768,485.34708 769.33426,484 770.9961,484 L797.0039,484 C798.6586,484 800,485.34559 800,487.008788 L800,501.991212 C800,503.65292 798.66574,505 797.0039,505 L770.9961,505 C769.3414,505 768,503.65441 768,501.991212 L768,487.008788 Z M650,540.008788 C650,538.34708 651.350317,537 653.003745,537 L770.996255,537 C772.655178,537 774,538.34559 774,540.008788 L774,554.991212 C774,556.65292 772.649683,558 770.996255,558 L653.003745,558 C651.344822,558 650,556.65441 650,554.991212 L650,540.008788 Z M624,540.008788 C624,538.34708 625.343312,537 626.994202,537 L641.005798,537 C642.65945,537 644,538.34559 644,540.008788 L644,554.991212 C644,556.65292 642.656688,558 641.005798,558 L626.994202,558 C625.34055,558 624,556.65441 624,554.991212 L624,540.008788 Z M780,540.008788 C780,538.34708 781.343312,537 782.994202,537 L797.005798,537 C798.65945,537 800,538.34559 800,540.008788 L800,554.991212 C800,556.65292 798.656688,558 797.005798,558 L782.994202,558 C781.34055,558 780,556.65441 780,554.991212 L780,540.008788 Z M662,514.008788 C662,512.34708 663.343312,511 664.994202,511 L679.005798,511 C680.65945,511 682,512.34559 682,514.008788 L682,528.991212 C682,530.65292 680.656688,532 679.005798,532 L664.994202,532 C663.34055,532 662,530.65441 662,528.991212 L662,514.008788 Z M689,514.008788 C689,512.34708 690.343312,511 691.994202,511 L706.005798,511 C707.65945,511 709,512.34559 709,514.008788 L709,528.991212 C709,530.65292 707.656688,532 706.005798,532 L691.994202,532 C690.34055,532 689,530.65441 689,528.991212 L689,514.008788 Z M662,487.008788 C662,485.34708 663.343312,484 664.994202,484 L679.005798,484 C680.65945,484 682,485.34559 682,487.008788 L682,501.991212 C682,503.65292 680.656688,505 679.005798,505 L664.994202,505 C663.34055,505 662,503.65441 662,501.991212 L662,487.008788 Z M689,487.008788 C689,485.34708 690.343312,484 691.994202,484 L706.005798,484 C707.65945,484 709,485.34559 709,487.008788 L709,501.991212 C709,503.65292 707.656688,505 706.005798,505 L691.994202,505 C690.34055,505 689,503.65441 689,501.991212 L689,487.008788 Z M715,487.008788 C715,485.34708 716.343312,484 717.994202,484 L732.005798,484 C733.65945,484 735,485.34559 735,487.008788 L735,501.991212 C735,503.65292 733.656688,505 732.005798,505 L717.994202,505 C716.34055,505 715,503.65441 715,501.991212 L715,487.008788 Z M742,487.008788 C742,485.34708 743.343312,484 744.994202,484 L759.005798,484 C760.65945,484 762,485.34559 762,487.008788 L762,501.991212 C762,503.65292 760.656688,505 759.005798,505 L744.994202,505 C743.34055,505 742,503.65441 742,501.991212 L742,487.008788 Z M715,514.008788 C715,512.34708 716.343312,511 717.994202,511 L732.005798,511 C733.65945,511 735,512.34559 735,514.008788 L735,528.991212 C735,530.65292 733.656688,532 732.005798,532 L717.994202,532 C716.34055,532 715,530.65441 715,528.991212 L715,514.008788 Z M742,514.008788 C742,512.34708 743.343312,511 744.994202,511 L759.005798,511 C760.65945,511 762,512.34559 762,514.008788 L762,528.991212 C762,530.65292 760.656688,532 759.005798,532 L744.994202,532 C743.34055,532 742,530.65441 742,528.991212 L742,514.008788 Z" id="Oval-3" sketch:type="MSShapeGroup"></path>
        </g>
    </g>
</svg>